<?xml version="1.0" encoding="utf-8"?>
<!-- Generator: Adobe Illustrator 15.0.0, SVG Export Plug-In . SVG Version: 6.00 Build 0)  -->
<!DOCTYPE svg PUBLIC "-//W3C//DTD SVG 1.1//EN" "http://www.w3.org/Graphics/SVG/1.1/DTD/svg11.dtd">
<svg version="1.1" id="Layer_1" xmlns="http://www.w3.org/2000/svg" xmlns:xlink="http://www.w3.org/1999/xlink" x="0px" y="0px"
	 width="144.937px" height="222px" viewBox="0 0 144.937 222" enable-background="new 0 0 144.937 222" xml:space="preserve">
<g>
	<g>
		<defs>
			<rect id="SVGID_1_" width="142.719" height="222"/>
		</defs>
		<clipPath id="SVGID_2_">
			<use xlink:href="#SVGID_1_"  overflow="visible"/>
		</clipPath>
		<path clip-path="url(#SVGID_2_)" fill="#31AAA7" d="M141.506,58.39C133.424,12.209,81.728-13.753,39.79,7.541
			C15.811,19.717,2.41,39.654,0.246,66.588c-1.551,19.249,4.263,36.347,16.711,51.125c6.914,8.203,14.332,16.023,20.867,24.514
			c12.125,15.76,21.672,33.012,27.801,52.021c2.911,9.021,4.857,18.253,5.907,27.753c0.093-0.568,0.182-1.135,0.282-1.703
			c1.309-7.209,2.033-14.58,4.036-21.592c8.136-28.57,23.627-53.061,43.967-74.295C137.816,105.623,146.006,84.158,141.506,58.39
			 M71.318,124.544c-29.13,0.04-52.792-23.74-52.771-53.025C18.568,42.181,42.2,18.56,71.407,18.676
			c29.412,0.122,52.818,23.601,52.785,52.949C124.17,100.833,100.51,124.513,71.318,124.544"/>
	</g>
	<g>
		<defs>
			<rect id="SVGID_3_" width="142.719" height="222"/>
		</defs>
		<clipPath id="SVGID_4_">
			<use xlink:href="#SVGID_3_"  overflow="visible"/>
		</clipPath>
		<path clip-path="url(#SVGID_4_)" fill="#FFFFFF" d="M58.701,83.87c-1.194,0-2.269,0.011-3.339,0
			c-2.639-0.023-5.292,0.042-7.922-0.104c-2.793-0.161-5.404-0.932-7.342-3.155c-1.344-1.538-1.967-3.404-2.203-5.38
			c-0.357-2.979-0.432-5.977,0.155-8.933c0.881-4.407,3.678-7.042,8.16-7.458c2.993-0.28,6.021-0.203,9.032-0.269
			c1.114-0.023,2.231-0.003,3.463-0.003c0-0.362,0-0.652,0.004-0.94c0.023-3.443-0.032-6.887,0.108-10.319
			c0.107-2.553,0.808-4.965,2.661-6.883c1.567-1.614,3.555-2.361,5.723-2.637c3.201-0.402,6.423-0.491,9.589,0.247
			c4.063,0.942,6.566,3.743,6.961,8.033c0.268,3.02,0.197,6.07,0.26,9.11c0.023,1.089,0,2.184,0,3.39c0.363,0,0.654,0,0.942,0
			c3.417,0.025,6.835-0.024,10.245,0.106c2.475,0.097,4.824,0.747,6.736,2.465c1.746,1.563,2.538,3.605,2.841,5.851
			c0.419,3.127,0.505,6.271-0.173,9.366c-0.945,4.319-3.693,6.863-8.084,7.254c-3.118,0.28-6.271,0.198-9.413,0.261
			c-0.993,0.027-1.987,0.005-3.095,0.005c0,0.364,0,0.654,0,0.941c-0.023,3.444,0.032,6.886-0.105,10.319
			c-0.1,2.472-0.77,4.822-2.516,6.721c-1.564,1.706-3.583,2.488-5.804,2.782c-3.124,0.415-6.266,0.497-9.37-0.174
			c-4.287-0.929-6.906-3.717-7.242-8.088c-0.286-3.771-0.197-7.569-0.27-11.354C58.697,84.671,58.701,84.328,58.701,83.87"/>
	</g>
</g>
</svg>
