<?xml version="1.0" encoding="utf-8"?>
<!-- Generator: Adobe Illustrator 15.0.0, SVG Export Plug-In . SVG Version: 6.00 Build 0)  -->
<!DOCTYPE svg PUBLIC "-//W3C//DTD SVG 1.1//EN" "http://www.w3.org/Graphics/SVG/1.1/DTD/svg11.dtd">
<svg version="1.1" id="Layer_1" xmlns="http://www.w3.org/2000/svg" xmlns:xlink="http://www.w3.org/1999/xlink" x="0px" y="0px"
	 width="251px" height="46px" viewBox="0 0 251 46" enable-background="new 0 0 251 46" xml:space="preserve">
<g>
	<g>
		<defs>
			<rect id="SVGID_1_" x="3.308" width="29.363" height="45.674"/>
		</defs>
		<clipPath id="SVGID_2_">
			<use xlink:href="#SVGID_1_"  overflow="visible"/>
		</clipPath>
		<path clip-path="url(#SVGID_2_)" fill="#FFFFFF" d="M32.421,12.013C30.759,2.512,20.123-2.829,11.495,1.551
			C6.561,4.057,3.804,8.159,3.358,13.7c-0.319,3.96,0.877,7.479,3.438,10.519c1.423,1.688,2.949,3.297,4.293,5.043
			c2.495,3.242,4.459,6.793,5.72,10.703c0.599,1.855,1,3.756,1.215,5.709c0.02-0.115,0.038-0.232,0.059-0.35
			c0.269-1.484,0.418-3,0.83-4.443c1.674-5.877,4.862-10.916,9.046-15.285C31.662,21.731,33.347,17.315,32.421,12.013
			 M17.981,25.625C11.988,25.633,7.119,20.74,7.124,14.714C7.128,8.678,11.991,3.819,17.999,3.843
			C24.05,3.868,28.866,8.698,28.86,14.736C28.854,20.746,23.986,25.617,17.981,25.625"/>
	</g>
	<g>
		<defs>
			<rect id="SVGID_3_" x="3.308" width="29.363" height="45.674"/>
		</defs>
		<clipPath id="SVGID_4_">
			<use xlink:href="#SVGID_3_"  overflow="visible"/>
		</clipPath>
		<path clip-path="url(#SVGID_4_)" fill="#FFFFFF" d="M15.385,17.256c-0.246,0-0.466,0.002-0.686,0
			c-0.543-0.005-1.089,0.008-1.63-0.021c-0.575-0.034-1.112-0.192-1.511-0.649c-0.276-0.317-0.404-0.701-0.453-1.107
			c-0.074-0.613-0.089-1.229,0.032-1.838c0.181-0.906,0.757-1.449,1.679-1.535c0.616-0.057,1.239-0.041,1.859-0.055
			c0.229-0.005,0.459-0.001,0.712-0.001c0-0.075,0-0.134,0.001-0.193c0.004-0.708-0.006-1.417,0.022-2.123
			c0.021-0.525,0.167-1.021,0.547-1.416c0.322-0.333,0.731-0.486,1.178-0.542c0.658-0.083,1.321-0.101,1.972,0.05
			c0.837,0.194,1.352,0.77,1.433,1.653c0.055,0.622,0.041,1.249,0.054,1.875c0.004,0.224,0,0.449,0,0.697c0.075,0,0.134,0,0.194,0
			c0.703,0.005,1.406-0.005,2.107,0.022c0.51,0.02,0.993,0.153,1.386,0.507c0.359,0.321,0.522,0.742,0.585,1.204
			c0.086,0.643,0.104,1.29-0.036,1.927c-0.194,0.889-0.759,1.412-1.663,1.493c-0.642,0.058-1.291,0.041-1.937,0.054
			c-0.204,0.005-0.408,0.001-0.636,0.001c0,0.075,0,0.134,0,0.194c-0.005,0.708,0.006,1.416-0.022,2.123
			c-0.021,0.508-0.158,0.992-0.518,1.383c-0.322,0.351-0.737,0.511-1.194,0.572c-0.643,0.086-1.289,0.103-1.928-0.036
			c-0.882-0.191-1.421-0.765-1.49-1.664c-0.059-0.775-0.041-1.557-0.056-2.336C15.384,17.42,15.385,17.35,15.385,17.256"/>
	</g>
</g>
<g>
	<path fill="#FFFFFF" d="M53.709,16.962c-0.35-2.283-2.26-3.728-4.73-3.728c-2.609,0-4.543,1.189-4.543,3.402
		c0,2.167,2.47,2.727,4.8,3.355c2.213,0.606,5.591,1.398,5.591,4.801c0,2.632-2.283,4.589-5.755,4.589
		c-3.542,0-5.638-2.142-5.871-4.752l0.862-0.232c0.14,2.26,1.91,4.146,5.009,4.146c2.937,0,4.823-1.583,4.823-3.75
		c0-2.891-3.448-3.565-5.661-4.172c-1.935-0.536-4.731-1.257-4.731-3.984c0-2.54,2.331-4.217,5.476-4.217
		c2.889,0,5.126,1.654,5.569,4.31L53.709,16.962z"/>
	<path fill="#FFFFFF" d="M68.83,23.998H58.719l-2.61,5.057H55.13l8.435-16.311h0.419l8.435,16.311H71.44L68.83,23.998z
		 M68.389,23.137l-4.474-8.669l-0.141-0.373l-0.139,0.373l-4.474,8.669H68.389z"/>
	<path fill="#FFFFFF" d="M85.748,12.745v9.786c0,4.242-2.237,6.875-6.571,6.875c-4.311,0-6.571-2.633-6.571-6.875v-9.786h0.932V22.6
		c0,3.683,1.911,5.941,5.639,5.941c3.751,0,5.639-2.259,5.639-5.941v-9.855H85.748z M82.392,9.296l-4.753,2.446l-0.35-0.606
		l4.707-2.54L82.392,9.296z"/>
	<path fill="#FFFFFF" d="M95.301,12.745c4.66,0,8.458,3.355,8.458,8.249c0,4.775-3.728,8.062-8.225,8.062h-6.991V12.746
		L95.301,12.745L95.301,12.745z M95.534,28.191c3.938,0,7.292-2.725,7.292-7.197c0-4.543-3.354-7.387-7.526-7.387h-5.825v14.586
		h6.059V28.191z"/>
	<path fill="#FFFFFF" d="M116.597,28.191v0.863h-10.554v-16.31h10.414v0.862h-9.482v6.222h7.712v0.862h-7.712v7.502h9.622V28.191z"
		/>
	<path fill="#FFFFFF" d="M138.641,25.094h-9.18l-1.98,3.963h-2.237l8.155-16.312h1.303l8.156,16.312h-2.237L138.641,25.094z
		 M137.708,23.207l-3.495-6.99l-0.162-0.49l-0.164,0.49l-3.494,6.99H137.708z"/>
	<path fill="#FFFFFF" d="M155.768,17.242c-1.074-1.748-3.104-2.843-5.336-2.843c-3.66,0-6.363,2.633-6.363,6.5
		s2.772,6.478,6.363,6.478c2.469,0,4.612-1.303,5.635-3.285l2.029,0.559c-1.373,2.891-4.238,4.73-7.664,4.73
		c-4.685,0-8.459-3.562-8.459-8.48c0-4.916,3.774-8.481,8.459-8.481c3.213,0,5.965,1.677,7.408,4.264L155.768,17.242z"/>
	<path fill="#FFFFFF" d="M170.607,27.168v1.889h-11.092V12.745h10.95v1.887h-8.922v4.917h7.177v1.841h-7.177v5.778H170.607z"/>
	<path fill="#FFFFFF" d="M181.257,17.312c-0.373-1.957-2.003-3.122-3.983-3.122c-2.074,0-3.588,0.932-3.588,2.61
		c0,1.724,2.168,2.237,4.356,2.913c2.308,0.699,5.358,1.584,5.358,4.893c0,2.75-2.375,4.775-5.965,4.775
		c-3.496,0-5.709-2.05-6.27-4.822l1.982-0.535c0.207,1.91,1.816,3.518,4.381,3.518c2.326,0,3.798-1.211,3.798-2.864
		c0-2.237-2.913-2.843-5.175-3.565c-1.935-0.606-4.543-1.467-4.543-4.24c0-2.541,2.422-4.451,5.707-4.451
		c2.981,0,5.291,1.747,5.873,4.38L181.257,17.312z"/>
	<path fill="#FFFFFF" d="M194.002,17.312c-0.371-1.957-2.003-3.122-3.984-3.122c-2.072,0-3.586,0.932-3.586,2.61
		c0,1.724,2.166,2.237,4.355,2.913c2.306,0.699,5.355,1.584,5.355,4.893c0,2.75-2.375,4.775-5.963,4.775
		c-3.494,0-5.707-2.05-6.268-4.822l1.979-0.535c0.211,1.91,1.817,3.518,4.381,3.518c2.332,0,3.799-1.211,3.799-2.864
		c0-2.237-2.914-2.843-5.172-3.565c-1.936-0.606-4.545-1.467-4.545-4.24c0-2.541,2.422-4.451,5.711-4.451
		c2.98,0,5.285,1.747,5.871,4.38L194.002,17.312z"/>
	<path fill="#FFFFFF" d="M202.482,9.459l-5.125,2.423l-0.653-1.142l5.034-2.702L202.482,9.459z M198.01,29.057V12.745h2.028v16.312
		H198.01z"/>
	<path fill="#FFFFFF" d="M218.375,12.745l-7.759,16.312h-1.562l-7.785-16.312h2.285l6.104,12.884l0.162,0.489l0.188-0.489
		l6.104-12.884H218.375z"/>
	<path fill="#FFFFFF" d="M230.725,27.168v1.889h-11.092V12.745h10.95v1.887h-8.926v4.917h7.181v1.841h-7.181v5.778H230.725z"/>
	<path fill="#FFFFFF" d="M243.914,27.168v1.889h-10.721V12.745h2.027v14.424L243.914,27.168L243.914,27.168z"/>
</g>
</svg>
