<?xml version="1.0" encoding="utf-8"?>
<!-- Generator: Adobe Illustrator 15.0.0, SVG Export Plug-In . SVG Version: 6.00 Build 0)  -->
<!DOCTYPE svg PUBLIC "-//W3C//DTD SVG 1.1//EN" "http://www.w3.org/Graphics/SVG/1.1/DTD/svg11.dtd">
<svg version="1.1" id="Layer_1" xmlns="http://www.w3.org/2000/svg" xmlns:xlink="http://www.w3.org/1999/xlink" x="0px" y="0px"
	 width="290px" height="55px" viewBox="0 0 290 55" enable-background="new 0 0 290 55" xml:space="preserve">
<g>
	<defs>
		<rect id="SVGID_1_" width="35.358" height="55"/>
	</defs>
	<clipPath id="SVGID_2_">
		<use xlink:href="#SVGID_1_"  overflow="visible"/>
	</clipPath>
	<path clip-path="url(#SVGID_2_)" fill="#2FAAA7" d="M35.057,14.466C33.056,3.025,20.248-3.407,9.858,1.868
		C3.917,4.885,0.597,9.824,0.061,16.497c-0.384,4.769,1.056,9.005,4.14,12.666c1.713,2.033,3.551,3.97,5.17,6.074
		c3.004,3.903,5.369,8.178,6.888,12.887c0.721,2.235,1.203,4.522,1.463,6.876c0.023-0.141,0.045-0.281,0.07-0.422
		c0.324-1.786,0.504-3.612,1-5.35c2.015-7.077,5.854-13.145,10.893-18.406C34.143,26.168,36.173,20.85,35.057,14.466 M17.669,30.855
		c-7.217,0.01-13.079-5.881-13.074-13.136C4.6,10.45,10.455,4.598,17.691,4.627c7.286,0.03,13.085,5.847,13.078,13.118
		C30.762,24.981,24.901,30.848,17.669,30.855"/>
	<path clip-path="url(#SVGID_2_)" fill="#FFFFFF" d="M14.543,20.779c-0.296,0-0.562,0.002-0.827,0
		c-0.654-0.006-1.311,0.01-1.963-0.026c-0.692-0.04-1.339-0.231-1.819-0.782c-0.333-0.381-0.487-0.843-0.546-1.333
		c-0.088-0.738-0.107-1.481,0.039-2.213c0.218-1.092,0.911-1.745,2.021-1.848c0.742-0.069,1.492-0.05,2.238-0.066
		c0.276-0.006,0.553-0.001,0.858-0.001c0-0.09,0-0.162,0.001-0.233c0.006-0.853-0.008-1.706,0.027-2.557
		c0.026-0.632,0.2-1.23,0.659-1.705c0.388-0.4,0.881-0.585,1.418-0.653c0.793-0.1,1.591-0.122,2.375,0.061
		c1.007,0.233,1.628,0.927,1.725,1.99c0.067,0.748,0.049,1.504,0.065,2.257c0.005,0.27,0,0.541,0,0.84c0.09,0,0.161,0,0.233,0
		c0.846,0.006,1.693-0.006,2.538,0.026c0.613,0.024,1.195,0.185,1.669,0.611c0.432,0.387,0.629,0.893,0.704,1.449
		c0.104,0.775,0.125,1.554-0.043,2.321c-0.235,1.07-0.915,1.7-2.003,1.797c-0.773,0.069-1.554,0.049-2.332,0.065
		c-0.246,0.006-0.492,0.001-0.766,0.001c0,0.09,0,0.162,0,0.233c-0.006,0.853,0.007,1.706-0.027,2.557
		c-0.025,0.612-0.191,1.194-0.623,1.665c-0.388,0.422-0.887,0.616-1.438,0.689c-0.774,0.103-1.552,0.123-2.321-0.043
		c-1.062-0.23-1.711-0.921-1.794-2.004c-0.071-0.934-0.049-1.875-0.067-2.813C14.542,20.977,14.543,20.892,14.543,20.779"/>
</g>
<g>
	<path fill="#FFFFFF" d="M57.331,20.233c-0.42-2.744-2.716-4.48-5.684-4.48c-3.136,0-5.46,1.428-5.46,4.088
		c0,2.604,2.968,3.276,5.768,4.032c2.66,0.728,6.72,1.68,6.72,5.768c0,3.164-2.744,5.516-6.916,5.516
		c-4.256,0-6.776-2.575-7.056-5.712l1.036-0.279c0.168,2.716,2.296,4.983,6.02,4.983c3.528,0,5.796-1.903,5.796-4.508
		c0-3.472-4.144-4.284-6.804-5.012c-2.324-0.644-5.684-1.512-5.684-4.788c0-3.052,2.8-5.068,6.58-5.068
		c3.472,0,6.16,1.988,6.692,5.18L57.331,20.233z"/>
	<path fill="#FFFFFF" d="M75.502,28.688H63.351l-3.136,6.076h-1.176l10.136-19.6h0.504l10.136,19.6h-1.176L75.502,28.688z
		 M74.971,27.652l-5.376-10.416l-0.168-0.448l-0.168,0.448l-5.376,10.416H74.971z"/>
	<path fill="#FFFFFF" d="M95.831,15.165v11.76c0,5.096-2.688,8.26-7.896,8.26c-5.18,0-7.896-3.164-7.896-8.26v-11.76h1.12v11.844
		c0,4.424,2.296,7.14,6.776,7.14c4.508,0,6.776-2.716,6.776-7.14V15.165H95.831z M91.799,11.021l-5.712,2.94l-0.42-0.728
		l5.656-3.052L91.799,11.021z"/>
	<path fill="#FFFFFF" d="M107.311,15.165c5.6,0,10.164,4.032,10.164,9.913c0,5.739-4.48,9.688-9.884,9.688h-8.4v-19.6H107.311z
		 M107.591,33.729c4.732,0,8.764-3.275,8.764-8.651c0-5.46-4.032-8.876-9.044-8.876h-7v17.528H107.591z"/>
	<path fill="#FFFFFF" d="M132.903,33.729v1.036h-12.684v-19.6h12.516v1.036h-11.396v7.476h9.268v1.036h-9.268v9.016H132.903z"/>
	<path fill="#2FAAA7" d="M159.391,30.005h-11.032l-2.38,4.76h-2.688l9.8-19.6h1.567l9.8,19.6h-2.688L159.391,30.005z
		 M158.271,27.736l-4.2-8.399l-0.196-0.588l-0.195,0.588l-4.2,8.399H158.271z"/>
	<path fill="#2FAAA7" d="M179.971,20.569c-1.288-2.1-3.725-3.416-6.412-3.416c-4.396,0-7.645,3.164-7.645,7.812
		c0,4.647,3.332,7.784,7.645,7.784c2.968,0,5.544-1.568,6.775-3.948l2.437,0.672c-1.652,3.472-5.096,5.684-9.212,5.684
		c-5.628,0-10.164-4.283-10.164-10.191s4.536-10.192,10.164-10.192c3.863,0,7.168,2.016,8.903,5.124L179.971,20.569z"/>
	<path fill="#2FAAA7" d="M197.807,32.497v2.268h-13.328v-19.6h13.16v2.268h-10.725v5.908h8.624v2.212h-8.624v6.944H197.807z"/>
	<path fill="#2FAAA7" d="M210.603,20.653c-0.448-2.352-2.408-3.752-4.788-3.752c-2.492,0-4.312,1.12-4.312,3.136
		c0,2.072,2.604,2.688,5.236,3.5c2.772,0.84,6.44,1.904,6.44,5.88c0,3.304-2.856,5.739-7.168,5.739c-4.2,0-6.86-2.464-7.532-5.796
		l2.38-0.644c0.252,2.296,2.184,4.228,5.264,4.228c2.8,0,4.564-1.456,4.564-3.443c0-2.688-3.5-3.416-6.216-4.284
		c-2.324-0.729-5.46-1.764-5.46-5.096c0-3.052,2.911-5.348,6.859-5.348c3.584,0,6.356,2.1,7.057,5.264L210.603,20.653z"/>
	<path fill="#2FAAA7" d="M225.918,20.653c-0.448-2.352-2.408-3.752-4.788-3.752c-2.492,0-4.312,1.12-4.312,3.136
		c0,2.072,2.604,2.688,5.236,3.5c2.772,0.84,6.44,1.904,6.44,5.88c0,3.304-2.856,5.739-7.168,5.739c-4.2,0-6.86-2.464-7.532-5.796
		l2.38-0.644c0.252,2.296,2.184,4.228,5.264,4.228c2.8,0,4.564-1.456,4.564-3.443c0-2.688-3.5-3.416-6.216-4.284
		c-2.324-0.729-5.46-1.764-5.46-5.096c0-3.052,2.911-5.348,6.859-5.348c3.584,0,6.356,2.1,7.057,5.264L225.918,20.653z"/>
	<path fill="#2FAAA7" d="M236.11,11.217l-6.16,2.912l-0.784-1.372l6.048-3.248L236.11,11.217z M230.734,34.765v-19.6h2.436v19.6
		H230.734z"/>
	<path fill="#2FAAA7" d="M255.206,15.165l-9.324,19.6h-1.876l-9.353-19.6h2.744l7.336,15.484l0.196,0.588l0.224-0.588l7.336-15.484
		H255.206z"/>
	<path fill="#2FAAA7" d="M270.046,32.497v2.268h-13.328v-19.6h13.16v2.268h-10.725v5.908h8.624v2.212h-8.624v6.944H270.046z"/>
	<path fill="#2FAAA7" d="M285.894,32.497v2.268h-12.88v-19.6h2.436v17.333H285.894z"/>
</g>
</svg>
