<?xml version="1.0" encoding="utf-8"?>
<!-- Generator: Adobe Illustrator 17.1.0, SVG Export Plug-In . SVG Version: 6.00 Build 0)  -->
<!DOCTYPE svg PUBLIC "-//W3C//DTD SVG 1.1//EN" "http://www.w3.org/Graphics/SVG/1.1/DTD/svg11.dtd">
<svg version="1.1" id="Layer_1" xmlns="http://www.w3.org/2000/svg" xmlns:xlink="http://www.w3.org/1999/xlink" x="0px" y="0px"
	 viewBox="-12 -4.5 290 55" enable-background="new -12 -4.5 290 55" xml:space="preserve">
<g>
	<g>
		<g>
			<defs>
				<rect id="SVGID_1_" x="-12" y="-5" width="35.4" height="55"/>
			</defs>
			<clipPath id="SVGID_2_">
				<use xlink:href="#SVGID_1_"  overflow="visible"/>
			</clipPath>
			<path clip-path="url(#SVGID_2_)" fill="#FFFFFF" d="M23.1,9.5C21.1-2,8.3-8.4-2.1-3.1c-5.9,3-9.3,8-9.8,14.6
				c-0.4,4.8,1.1,9,4.1,12.7c1.7,2,3.6,4,5.2,6.1c3,3.9,5.4,8.2,6.9,12.9c0.7,2.2,1.2,4.5,1.5,6.9c0-0.1,0-0.3,0.1-0.4
				c0.3-1.8,0.5-3.6,1-5.4c2-7.1,5.9-13.2,10.9-18.4C22.2,21.2,24.2,15.9,23.1,9.5 M5.7,25.9c-7.2,0-13.1-5.9-13.1-13.1
				c0-7.3,5.9-13.1,13.1-13.1c7.3,0,13.1,5.8,13.1,13.1C18.8,20,12.9,25.9,5.7,25.9"/>
		</g>
	</g>
	<g>
		<g>
			<defs>
				<rect id="SVGID_3_" x="-12" y="-5" width="35.4" height="55"/>
			</defs>
			<clipPath id="SVGID_4_">
				<use xlink:href="#SVGID_3_"  overflow="visible"/>
			</clipPath>
			<path clip-path="url(#SVGID_4_)" fill="#FFFFFF" d="M2.6,15.8c-0.3,0-0.6,0-0.8,0c-0.7,0-1.3,0-2,0c-0.7,0-1.3-0.2-1.8-0.8
				c-0.3-0.4-0.5-0.8-0.5-1.3c-0.1-0.7-0.1-1.5,0-2.2c0.2-1.1,0.9-1.7,2-1.8c0.7-0.1,1.5,0,2.2-0.1c0.3,0,0.6,0,0.9,0
				c0-0.1,0-0.2,0-0.2c0-0.9,0-1.7,0-2.6c0-0.6,0.2-1.2,0.7-1.7c0.4-0.4,0.9-0.6,1.4-0.7C5.5,4.3,6.3,4.3,7,4.4c1,0.2,1.6,0.9,1.7,2
				c0.1,0.7,0,1.5,0.1,2.3c0,0.3,0,0.5,0,0.8c0.1,0,0.2,0,0.2,0c0.8,0,1.7,0,2.5,0c0.6,0,1.2,0.2,1.7,0.6c0.4,0.4,0.6,0.9,0.7,1.5
				c0.1,0.8,0.1,1.6,0,2.3c-0.2,1.1-0.9,1.7-2,1.8c-0.8,0.1-1.6,0-2.3,0.1c-0.2,0-0.5,0-0.8,0c0,0.1,0,0.2,0,0.2c0,0.9,0,1.7,0,2.6
				c0,0.6-0.2,1.2-0.6,1.7c-0.4,0.4-0.9,0.6-1.4,0.7c-0.8,0.1-1.6,0.1-2.3,0c-1.1-0.2-1.7-0.9-1.8-2c-0.1-0.9,0-1.9-0.1-2.8
				C2.6,16,2.6,15.9,2.6,15.8"/>
		</g>
	</g>
</g>
<g>
	<path fill="#FFFFFF" d="M48.7,15.5C48.3,12.7,46,11,43,11c-3.1,0-5.5,1.4-5.5,4.1c0,2.6,3,3.3,5.8,4c2.7,0.7,6.7,1.7,6.7,5.8
		c0,3.2-2.8,5.5-6.9,5.5c-4.3,0-6.8-2.6-7.1-5.7l1-0.3c0.2,2.7,2.3,5,6,5c3.5,0,5.8-1.9,5.8-4.5c0-3.5-4.2-4.3-6.8-5
		c-2.3-0.6-5.7-1.5-5.7-4.8c0-3.1,2.8-5.1,6.6-5.1c3.5,0,6.2,2,6.7,5.2L48.7,15.5z"/>
	<path fill="#FFFFFF" d="M66.9,23.9H54.8L51.6,30h-1.2l10.2-19.7h0.5L71.3,30h-1.2L66.9,23.9z M66.4,22.9L61,12.5L60.9,12l-0.2,0.4
		l-5.4,10.4H66.4z"/>
	<path fill="#FFFFFF" d="M87.3,10.4v11.8c0,5.1-2.7,8.3-7.9,8.3c-5.2,0-7.9-3.2-7.9-8.3V10.4h1.1v11.9c0,4.4,2.3,7.2,6.8,7.2
		c4.5,0,6.8-2.7,6.8-7.2V10.4C86.2,10.4,87.3,10.4,87.3,10.4z M83.3,6.2l-5.7,2.9l-0.4-0.7l5.7-3.1L83.3,6.2z"/>
	<path fill="#FFFFFF" d="M98.8,10.4c5.6,0,10.2,4,10.2,9.9c0,5.8-4.5,9.7-9.9,9.7h-8.4V10.4L98.8,10.4L98.8,10.4z M99.1,29
		c4.7,0,8.8-3.3,8.8-8.7c0-5.5-4-8.9-9.1-8.9h-7V29L99.1,29L99.1,29z"/>
	<path fill="#FFFFFF" d="M124.5,29v1h-12.7V10.4h12.5v1h-11.4v7.5h9.3v1h-9.3v9L124.5,29L124.5,29z"/>
	<path fill="#FFFFFF" d="M151.1,25.3H140l-2.4,4.8h-2.7l9.8-19.7h1.6l9.8,19.7h-2.7L151.1,25.3z M149.9,23l-4.2-8.4l-0.2-0.6
		l-0.2,0.6l-4.2,8.4H149.9z"/>
	<path fill="#FFFFFF" d="M171.7,15.8c-1.3-2.1-3.7-3.4-6.4-3.4c-4.4,0-7.7,3.2-7.7,7.8s3.3,7.8,7.7,7.8c3,0,5.6-1.6,6.8-4l2.4,0.7
		c-1.7,3.5-5.1,5.7-9.2,5.7c-5.6,0-10.2-4.3-10.2-10.2c0-5.9,4.5-10.2,10.2-10.2c3.9,0,7.2,2,8.9,5.1L171.7,15.8z"/>
	<path fill="#FFFFFF" d="M189.6,27.8V30h-13.4V10.4h13.2v2.3h-10.8v5.9h8.6v2.2h-8.6v7H189.6z"/>
	<path fill="#FFFFFF" d="M202.4,15.9c-0.4-2.4-2.4-3.8-4.8-3.8c-2.5,0-4.3,1.1-4.3,3.1c0,2.1,2.6,2.7,5.2,3.5
		c2.8,0.8,6.5,1.9,6.5,5.9c0,3.3-2.9,5.8-7.2,5.8c-4.2,0-6.9-2.5-7.6-5.8l2.4-0.6c0.2,2.3,2.2,4.2,5.3,4.2c2.8,0,4.6-1.5,4.6-3.5
		c0-2.7-3.5-3.4-6.2-4.3c-2.3-0.7-5.5-1.8-5.5-5.1c0-3.1,2.9-5.4,6.9-5.4c3.6,0,6.4,2.1,7.1,5.3L202.4,15.9z"/>
	<path fill="#FFFFFF" d="M217.8,15.9c-0.4-2.4-2.4-3.8-4.8-3.8c-2.5,0-4.3,1.1-4.3,3.1c0,2.1,2.6,2.7,5.2,3.5
		c2.8,0.8,6.5,1.9,6.5,5.9c0,3.3-2.9,5.8-7.2,5.8c-4.2,0-6.9-2.5-7.6-5.8L208,24c0.3,2.3,2.2,4.2,5.3,4.2c2.8,0,4.6-1.5,4.6-3.5
		c0-2.7-3.5-3.4-6.2-4.3c-2.3-0.7-5.5-1.8-5.5-5.1c0-3.1,2.9-5.4,6.9-5.4c3.6,0,6.4,2.1,7.1,5.3L217.8,15.9z"/>
	<path fill="#FFFFFF" d="M228,6.4l-6.2,2.9L221,8l6.1-3.3L228,6.4z M222.6,30V10.4h2.4V30H222.6z"/>
	<path fill="#FFFFFF" d="M247.1,10.4L237.8,30h-1.9l-9.4-19.7h2.8l7.4,15.5l0.2,0.6l0.2-0.6l7.4-15.5
		C244.4,10.4,247.1,10.4,247.1,10.4z"/>
	<path fill="#FFFFFF" d="M262,27.8V30h-13.4V10.4h13.2v2.3h-10.8v5.9h8.7v2.2h-8.7v7H262z"/>
	<path fill="#FFFFFF" d="M277.9,27.8V30H265V10.4h2.4v17.4L277.9,27.8L277.9,27.8z"/>
</g>
</svg>
